PathFileType	4	(X/Y/Z)	c:/Users/goper/Files/vsCode/490R/osim_files/C17/C17_Static.trc
DataRate	CameraRate	NumFrames	NumMarkers	Units                	OrigDataRate	OrigDataStartFrame	OrigNumFrames
250.00	250.00	4	36	mm	250.0	2443	3257
                Frame#	Time	LPSIS			LASIS			LTH1			LTH2			LTH3			LTH4			LLFE			LMFE			LSH1			LSH2			LSH3			LSH4			LLMAL			LMMAL			LCAL			LMTP5			LTOE			LMTP1			RPSIS			RASIS			RTH1			RTH2			RTH3			RTH4			RLFE			RMFE			RSH1			RSH2			RSH3			RSH4			RLMAL			RMMAL			RCAL			RMTP1			RTOE			RMTP5		
		X1	Y1	Z1	X2	Y2	Z2	X3	Y3	Z3	X4	Y4	Z4	X5	Y5	Z5	X6	Y6	Z6	X7	Y7	Z7	X8	Y8	Z8	X9	Y9	Z9	X10	Y10	Z10	X11	Y11	Z11	X12	Y12	Z12	X13	Y13	Z13	X14	Y14	Z14	X15	Y15	Z15	X16	Y16	Z16	X17	Y17	Z17	X18	Y18	Z18	X19	Y19	Z19	X20	Y20	Z20	X21	Y21	Z21	X22	Y22	Z22	X23	Y23	Z23	X24	Y24	Z24	X25	Y25	Z25	X26	Y26	Z26	X27	Y27	Z27	X28	Y28	Z28	X29	Y29	Z29	X30	Y30	Z30	X31	Y31	Z31	X32	Y32	Z32	X33	Y33	Z33	X34	Y34	Z34	X35	Y35	Z35	X36	Y36	Z36

2443	9.76800	-307.03235	1086.13208	401.62939	-100.23355	1032.63281	313.51138	-205.52399	754.70129	261.04660	-204.27110	710.42358	261.23401	-143.41901	752.28076	259.66791	-150.21242	707.81964	260.67145	-210.12544	514.60168	278.28021	-209.09871	504.53970	400.84860	-279.74619	289.65707	261.94403	-278.20801	246.51279	260.05478	-216.92694	284.25391	255.50887	-225.79640	241.38158	256.74252	-260.55029	97.88613	266.57724	-246.52376	97.85699	352.53223	-333.44284	54.37897	308.77536	-143.29794	41.10783	235.85709	-83.17161	59.11111	302.92755	-100.99622	40.80085	352.47290	-311.57602	1079.90466	476.09555	-125.81011	1041.67004	593.22253	-209.07057	782.53540	656.42200	-211.64168	736.24707	653.02838	-148.96570	774.78918	650.71570	-159.91338	728.24548	652.42316	-209.76154	506.72858	652.86163	-215.63612	502.48126	526.64636	-293.18518	328.19452	677.26556	-290.46353	283.27002	674.27924	-231.48627	322.81357	681.57916	-239.48116	276.02325	678.60345	-272.53128	89.27044	666.19189	-245.85243	101.62170	579.70483	-339.67502	50.17462	629.32501	-106.96485	42.03721	578.47742	-90.68726	63.36443	624.56897	-142.20892	35.85892	696.58240
2444	9.77200	-306.96597	1085.60828	401.60532	-100.15435	1032.62073	313.52377	-205.50839	754.70538	261.07874	-204.25623	710.39075	261.26758	-143.38126	752.27484	259.69543	-150.19670	707.81006	260.67731	-210.13629	514.56036	278.32462	-209.13281	504.52960	400.84869	-279.68610	289.64758	261.90546	-278.21500	246.46375	260.06927	-216.92650	284.26779	255.50191	-225.79367	241.37015	256.73328	-260.55447	97.87010	266.59201	-246.57315	97.83716	352.51572	-333.47086	54.34759	308.76892	-143.32358	41.10720	235.85796	-83.17822	59.09562	302.93781	-101.00032	40.79347	352.48233	-311.50546	1079.93042	476.11359	-125.73569	1041.69141	593.21075	-209.04744	782.54382	656.46942	-211.64438	736.24390	653.04749	-148.90794	774.79480	650.74670	-159.86104	728.28265	652.43970	-209.71974	506.70819	652.86847	-215.45923	502.55841	526.47522	-293.14575	328.20367	677.26105	-290.47327	283.25800	674.25244	-231.47615	322.81219	681.58105	-239.47585	276.03500	678.59747	-272.55576	89.27151	666.20227	-245.86462	101.60307	579.70361	-339.71002	50.17173	629.28308	-106.98233	42.02584	578.48706	-90.69417	63.36287	624.57758	-142.22163	35.86454	696.58112
2445	9.77600	-306.91690	1086.22546	401.61597	-100.09507	1032.58105	313.54797	-205.49084	754.66473	261.11548	-204.20076	710.36285	261.28732	-143.32117	752.25104	259.70880	-150.15683	707.76984	260.70416	-210.08211	514.55292	278.32993	-209.09889	504.54132	400.87595	-279.68311	289.63748	261.89227	-278.19000	246.44824	260.10455	-216.91890	284.22733	255.49510	-225.80255	241.33272	256.74304	-260.55655	97.84215	266.59412	-246.58209	97.82400	352.51392	-333.50089	54.34629	308.76434	-143.31558	41.09780	235.86952	-83.18930	59.08930	302.92307	-100.99842	40.78297	352.48724	-311.41238	1079.96875	476.11197	-125.66910	1041.71106	593.21149	-208.98669	782.54315	656.49036	-211.55597	736.23254	653.08038	-148.84482	774.78473	650.76392	-159.77927	728.26746	652.45050	-209.62025	506.71753	652.87323	-215.83786	502.39728	526.83038	-293.14209	328.18848	677.23401	-290.39532	283.29019	674.25311	-231.41396	322.82040	681.57367	-239.44452	276.03238	678.58313	-272.52335	89.27852	666.19794	-245.86113	101.59964	579.71533	-339.67459	50.13547	629.31586	-106.97777	42.02090	578.48334	-90.71234	63.36612	624.56232	-142.22269	35.83983	696.57599
2446	9.78000	-306.79565	1086.21118	401.61600	-100.00114	1032.55237	313.57776	-205.44452	754.67114	261.13480	-204.14925	710.32794	261.30444	-143.25740	752.21936	259.71933	-150.11496	707.72681	260.73688	-210.04869	514.51068	278.35757	-209.07634	504.50598	400.89557	-279.63660	289.61682	261.87518	-278.21207	246.42876	260.09641	-216.89561	284.19708	255.51634	-226.08580	241.00859	256.65576	-260.55063	97.82289	266.60025	-246.54460	97.81393	352.52859	-333.47678	54.32303	308.77390	-143.29852	41.07798	235.88097	-83.16936	59.07622	302.92270	-100.97665	40.77848	352.48328	-311.32745	1080.00952	476.10712	-125.60756	1041.69446	593.23706	-208.86404	782.52502	656.54474	-211.47342	736.22058	653.11658	-148.79260	774.78156	650.80383	-159.69223	728.25922	652.47662	-209.55682	506.69427	652.89886	-215.76874	502.36255	526.84027	-293.10196	328.17029	677.24677	-291.29388	282.33322	673.83441	-231.36407	322.78424	681.58215	-239.38142	276.02716	678.58887	-272.51450	89.26478	666.20795	-245.85521	101.57934	579.73071	-339.66724	50.12807	629.29163	-106.97815	42.00042	578.48309	-90.67069	63.35775	624.56891	-142.32018	35.74564	696.50177
